<svg xmlns="http://www.w3.org/2000/svg" width="76.051" height="99.186" viewBox="0 0 76.051 99.186"><defs><style>.a{fill:#aa8b55;}.b{fill:#fff;}</style></defs><g transform="translate(693.603 -59.061)"><g transform="translate(-693.603 59.061)"><path class="a" d="M-1172.964,529.923q-13.8-.006-27.592,0a2.581,2.581,0,0,0-1.177.232,1.972,1.972,0,0,0-1,2.105,1.878,1.878,0,0,0,2,1.593q6.974.009,13.948,0,6.9,0,13.8,0a1.951,1.951,0,0,0,2.209-1.95A1.946,1.946,0,0,0-1172.964,529.923Z" transform="translate(1224.648 -481.248)"/><path class="a" d="M-1208.943,479.419h15.849q7.849,0,15.7,0a4.077,4.077,0,0,0,1.42-.181,2.126,2.126,0,0,0,1.449-1.776,1.981,1.981,0,0,0-1.461-1.747,3.813,3.813,0,0,0-1.266-.209q-15.925,0-31.851,0a2.794,2.794,0,0,0-1.881.687,1.536,1.536,0,0,0-.1,2.443A2.812,2.812,0,0,0-1208.943,479.419Z" transform="translate(1230.969 -442.45)"/><path class="a" d="M-1202.96,386.409a9.4,9.4,0,0,0-5-8.528c-3.944-2.311-7.928-4.554-11.886-6.842-2.646-1.53-5.27-3.1-7.914-4.629-2.709-1.571-5.419-3.142-8.148-4.678a9.5,9.5,0,0,0-9.418-.338c-1.486.749-2.9,1.646-4.344,2.477q-4.534,2.6-9.068,5.205c-4.094,2.355-8.2,4.7-12.273,7.082a26.243,26.243,0,0,0-4.729,2.988,8,8,0,0,0-2.657,4.13,5.7,5.7,0,0,0-.568,2.471h0c-.011.328-.032.655-.032.983,0,8.5.014,16.991,0,25.487a78.888,78.888,0,0,0,1.234,15.755,26.471,26.471,0,0,0,3.326,8.811,28.528,28.528,0,0,0,8.482,8.328c3.684,2.538,7.573,4.751,11.393,7.072.884.537,1.765,1.082,2.648,1.621.354.217.565.177.541-.3-.01-.2,0-.4,0-.607q0-14.754,0-29.507c0-.582.046-1.167-.008-1.744-.069-.741.146-1.075.953-.992a20.188,20.188,0,0,0,2.047.013c1.137,0,1.14,0,1.14,1.168q0,17.029-.009,34.059a1.393,1.393,0,0,0,.722,1.36c.927.563,1.814,1.193,2.719,1.792.163.108.329.294.54.179.178-.1.108-.317.118-.486s0-.354,0-.531q0-18.054,0-36.107c0-.253.014-.507,0-.758-.034-.484.169-.69.662-.676.707.021,1.416,0,2.124,0,1.258,0,1.258,0,1.258,1.221q0,18.091,0,36.183c0,.3.018.607,0,.91-.021.512.109.667.589.331.89-.623,1.774-1.262,2.712-1.8a1.583,1.583,0,0,0,.828-1.6q-.031-16.726-.015-33.452c0-.228,0-.455,0-.683,0-1.107,0-1.108,1.073-1.11.607,0,1.214,0,1.821,0,1.209,0,1.217,0,1.218,1.184q0,15.778.01,31.555c0,.255-.128.551.148.786.182-.1.361-.193.532-.3,3.606-2.187,7.219-4.364,10.815-6.567a47.8,47.8,0,0,0,8.333-6.152,23.3,23.3,0,0,0,6.4-11.157,55.819,55.819,0,0,0,1.645-13.8C-1202.934,406.282-1202.945,396.345-1202.96,386.409Zm-4,30.669a46.136,46.136,0,0,1-1.574,11.744,21.6,21.6,0,0,1-8.177,11.777,109.962,109.962,0,0,1-9.6,6.194c-.314.189-.46.169-.457-.226,0-.253,0-.505,0-.758q0-13.763,0-27.526c0-.328-.012-.657-.018-.985-.135-.126-.163-.33-.323-.438a1.249,1.249,0,0,0-1.291-.183,4.222,4.222,0,0,1-1.486.171q-12.543,0-25.084-.011c-.56,0-.734.152-.732.732.021,8.437.008,16.875.021,25.312,0,.92.245,1.828.221,2.756-.011.433-.04.836-.631.809-4.31-2.483-8.621-4.981-12.175-8.524a21.409,21.409,0,0,1-5.694-11.414,64.3,64.3,0,0,1-1.068-12.343q-.02-13.678-.005-27.356c0-.353-.014-.706-.021-1.06a.635.635,0,0,1,.179-.892c.545-1.965,2.12-2.919,3.741-3.845q6.114-3.5,12.213-7.02c4.749-2.734,9.483-5.492,14.248-8.2a7.406,7.406,0,0,1,7.842.205c4.432,2.574,8.886,5.111,13.323,7.676,4.043,2.337,8.073,4.7,12.116,7.036a12.7,12.7,0,0,1,3.25,2.188,4.483,4.483,0,0,1,1.247,3.087C-1206.9,396.352-1206.837,406.716-1206.959,417.078Z" transform="translate(1279 -360.304)"/><path class="a" d="M-1189.283,502.906h-22.141q-11.147,0-22.293,0a3.888,3.888,0,0,0-3.929,3.729,3.943,3.943,0,0,0,3.587,4.075,3.842,3.842,0,0,0,4.177-3.053c.123-.707.4-.864,1.076-.862q17.25.031,34.5,0c.756,0,1.1.165,1.26.963a3.592,3.592,0,0,0,2.75,2.831,3.745,3.745,0,0,0,3.824-1.03,3.8,3.8,0,0,0,.781-4.342A3.718,3.718,0,0,0-1189.283,502.906Z" transform="translate(1249.515 -461.986)"/></g><path class="b" d="M-1201.017,424.81c0,.809-.037,1.621.013,2.426a1.1,1.1,0,0,1-.65,1.139,9.6,9.6,0,0,1-6.709,1.079,7.434,7.434,0,0,1-5.67-3.954c-1.974-3.792-.945-9.708,4-11.416a9.052,9.052,0,0,1,8.317.926c.544.358.755.7.252,1.247a3,3,0,0,0-.317.511.829.829,0,0,1-1.322.33,6.92,6.92,0,0,0-3.183-1.069,4.952,4.952,0,0,0-5.642,4.517c-.188,2.1.062,4.1,1.795,5.6a6.068,6.068,0,0,0,6.142.645.938.938,0,0,0,.191-.122,9.1,9.1,0,0,0,.067-2.819.633.633,0,0,0-.341-.1c-.175-.016-.354,0-.531,0-1.821,0-1.6.113-1.622-1.731,0-.326.111-.446.438-.444,1.441.01,2.882.014,4.323,0,.4,0,.452.185.448.512C-1201.026,422.989-1201.018,423.9-1201.017,424.81Z" transform="translate(539.744 -339.162)"/><path class="b" d="M-1117.919,429.658a7.743,7.743,0,0,1-4.642-1.543c-.461-.341-.577-.607-.222-1.14.919-1.377.892-1.4,2.313-.511a4.328,4.328,0,0,0,3.663.691,2,2,0,0,0,1.564-1.9,1.764,1.764,0,0,0-1.166-1.991c-1.012-.523-2.15-.69-3.2-1.112-1.956-.788-2.942-2.031-2.907-3.973a4.25,4.25,0,0,1,2.893-4.2,6.653,6.653,0,0,1,6.456.883c.307.213.431.4.187.727a.63.63,0,0,0-.03.069c-.683,1.206-.617,1.852-2.327.777a3.626,3.626,0,0,0-3.13-.343,1.822,1.822,0,0,0-1.323,1.583,1.6,1.6,0,0,0,.857,1.639,12.35,12.35,0,0,0,2.665,1.035,6.8,6.8,0,0,1,2.707,1.447c1.833,1.861,1.237,5.524-1.124,6.984A5.892,5.892,0,0,1-1117.919,429.658Z" transform="translate(474.154 -339.183)"/><path class="b" d="M-1157.794,423.3c0,2-.015,3.992.01,5.988.006.488-.064.746-.636.7-.725-.06-1.673.224-2.125-.139-.482-.386-.141-1.372-.144-2.093-.018-3.461-.026-6.923.008-10.383.007-.649-.187-.8-.8-.775-1.135.05-2.273,0-3.41.021-.382.007-.514-.1-.533-.5-.084-1.877-.1-1.877,1.739-1.877,3.31,0,6.62.014,9.929-.013.586,0,.779.137.767.75-.032,1.633,0,1.633-1.6,1.633-.859,0-1.719.028-2.577-.01-.5-.022-.642.143-.635.638C-1157.779,419.261-1157.793,421.282-1157.794,423.3Z" transform="translate(504.433 -339.693)"/></g></svg>